<?xml version="1.0" standalone="no"?>
<!DOCTYPE svg PUBLIC "-//W3C//DTD SVG 1.1//EN" "http://www.w3.org/Graphics/SVG/1.1/DTD/svg11.dtd" >
<!--
2013-9-30: Created.
-->
<svg>
<metadata>
Created by iconfont
</metadata>
<defs>

<font id="iconfont" horiz-adv-x="1024" >
  <font-face
    font-family="iconfont"
    font-weight="500"
    font-stretch="normal"
    units-per-em="1024"
    ascent="896"
    descent="-128"
  />
    <missing-glyph />
    
    <glyph glyph-name="dayin_normal" unicode="&#59004;" d="M832 256h128V640h-128v-64H192V640H64v-384h128V384h640v-128z m0-64v-256H192v256H64a64 64 0 0 0-64 64V640a64 64 0 0 0 64 64h128V832h640v-128h128a64 64 0 0 0 64-64v-384a64 64 0 0 0-64-64h-128zM256 640h512V768H256v-128z m0-640h512V320H256v-320z m64 256h384v-64H320v64z m0-128h384v-64H320v64z m480 320a32 32 0 1 0 0 64 32 32 0 0 0 0-64z"  horiz-adv-x="1024" />

    
    <glyph glyph-name="charujilu_normal" unicode="&#59005;" d="M640 384H504.704l37.696-37.76a32 32 0 1 0-45.248-45.184L406.656 391.552a32 32 0 0 0 0 45.248L497.152 527.36a32 32 0 0 0 45.248-45.248L508.352 448H640V576h384v-64h-320v-192h320v-64h-384V384zM0 512V768.064h384V512H0z m64 64h256V704H64v-128zM0-128V320h384v-448H0z m65.984 256H320v128H65.984v-128zM64-64h256v128H64v-128z"  horiz-adv-x="1024" />

    
    <glyph glyph-name="dayinjianrong_normal" unicode="&#59006;" d="M832 0v-64H192v256H64a64 64 0 0 0-64 64V640a64 64 0 0 0 64 64h128V832h640v-128h128a64 64 0 0 0 64-64v-384a64 64 0 0 0-64-64h-128v-128h64v64h64v-64h64v-64h-64v-64h-64v64h-64z m0 256h128V640h-128v-64H192V640H64v-384h128V384h640v-128zM256 640h512V768H256v-128z m0-640h512V320H256v-320z m64 256h384v-64H320v64z m0-128h384v-64H320v64z m480 320a32 32 0 1 0 0 64 32 32 0 0 0 0-64z"  horiz-adv-x="1024" />

    
    <glyph glyph-name="dayinyulan_normal" unicode="&#59007;" d="M715.648 27.52a224 224 0 1 0 89.088 89.28c3.008-2.112 5.824-4.48 8.512-7.168l64.384-64.384a63.936 63.936 0 1 0-90.496-90.496l-64.384 64.384a64.32 64.32 0 0 0-7.04 8.384zM640 741.504V576h165.504L640 741.504zM576 768H192v-768h256v-64H128V832h512l256-256v-192h-64V512H576V768z m32-384A160.192 160.192 0 0 1 448 224C448 135.808 519.808 64 608 64s160 71.808 160 160S696.192 384 608 384z m-320 320h192a32 32 0 0 0 0-64h-192a32 32 0 0 0 0 64z m0-128h192a32 32 0 0 0 0-64h-192a32 32 0 0 0 0 64z"  horiz-adv-x="1024" />

    
    <glyph glyph-name="daochu_normal" unicode="&#59008;" d="M960 544l-64 64v-320l64 64V-128H320l-256 256.064V896h896v-352zM127.936 192h256v-256H896V832H127.936v-640z m26.56-64L320-37.504V128H154.496z m681.152 353.728l-79.296 79.36a32 32 0 1 0 45.248 45.248l135.744-135.808a32 32 0 0 0 0-45.248l-135.68-135.744a32 32 0 0 0-45.312 45.248l82.944 82.944H480a32 32 0 0 0 0 64h355.648z"  horiz-adv-x="1024" />

    
    <glyph glyph-name="daoru_normal" unicode="&#59009;" d="M128 225.728V352H64V896h640l256-256.064V-128H64v160h64v129.728h-32a32 32 0 1 0 0 64H128z m0-64V-64h768.064V576h-256V832H128v-606.272h323.648l-79.296 79.36a32 32 0 0 0 45.248 45.248l135.744-135.808a32 32 0 0 0 0-45.248l-135.68-135.744a32 32 0 0 0-45.312 45.248l82.944 82.944H128zM869.504 640L704 805.504V640h165.504zM352 528L256 384H192l128 192-128 192h64l96-144L448 768h64L384 576l128-192H448L352 528z"  horiz-adv-x="1024" />

    
    <glyph glyph-name="dayinjipianyi_normal" unicode="&#59010;" d="M384.035601 45.238364l81.019493 81.083489a31.99822 31.99822 0 0 0 45.245484-45.309479l-135.73645-135.672454a31.99822 31.99822 0 0 0-45.245483 0l-135.73645 135.672454a31.99822 31.99822 0 0 0 45.245483 45.309479L320.039161 45.046374V383.971522H109.234887l81.211483-81.275479a31.99822 31.99822 0 1 0-45.245484-45.181487L9.40044 393.251005a31.99822 31.99822 0 0 0 0 45.245484l135.800446 135.800446a31.99822 31.99822 0 1 0 45.245484-45.30948L109.36288 447.967962H320.039161V786.765116L238.763682 705.553634a31.99822 31.99822 0 1 0-45.181487 45.245483L329.254648 886.599563a31.99822 31.99822 0 0 0 45.30948 0l135.73645-135.800446a31.99822 31.99822 0 0 0-45.245484-45.245483L384.035601 786.573127V447.967962h466.726039l-81.08349 81.019493a31.99822 31.99822 0 0 0 45.309479 45.30948l135.672454-135.800446a31.99822 31.99822 0 0 0 0-45.245484l-135.672454-135.736449a31.99822 31.99822 0 0 0-45.309479 45.245483L850.953629 383.971522H384.035601v-338.733158z"  horiz-adv-x="1024" />

    
    <glyph glyph-name="tijiao_normal" unicode="&#59011;" d="M256 768H128v-768h768V768h-128v-320H256V768zM64 832h896v-896H64V832z m256-64v-256h384V768H320z m256-64h64v-128H576V704z"  horiz-adv-x="1024" />

    
    <glyph glyph-name="shanchujilu_normal" unicode="&#59012;" d="M640 384h195.648l-34.048 34.048a32 32 0 1 0 45.248 45.248l90.496-90.496a32 32 0 0 0 0-45.248l-90.496-90.496a32 32 0 0 0-45.248 45.248l37.76 37.696H640v-128H320v-256H64v64h192v192H64V256.064h512V448H64V512h192V704H64V768h256v-256h320v-128z"  horiz-adv-x="1024" />

    
    <glyph glyph-name="morencanshu_normal" unicode="&#59013;" d="M768 96h160a32 32 0 1 0 0-64H768v-32a32 32 0 1 0-64 0v32H96a32 32 0 1 0 0 64H704V128a32 32 0 1 0 64 0v-32z m-224 320h384a32 32 0 1 0 0-64h-384V320a32 32 0 0 0-64 0v32h-384a32 32 0 0 0 0 64h384V448a32 32 0 0 0 64 0v-32zM256 736V768a32 32 0 0 0 64 0v-32h608a32 32 0 1 0 0-64H320V640a32 32 0 0 0-64 0v32H96a32 32 0 0 0 0 64H256z"  horiz-adv-x="1024" />

    
    <glyph glyph-name="yemianshezhi_normal" unicode="&#59014;" d="M0 768h1024v-768H0V768z m64-64v-640h896V704H64z m512 0h64v-640H576V704z m128-96h192v-64h-192v64z m0-128h192v-64h-192v64z m0-128h192v-64h-192v64z m0-128h192v-64h-192v64z m-576 384h384v-64H128v64z m0-192h384v-64H128v64z m0-192h384v-64H128v64z"  horiz-adv-x="1024" />

    
    <glyph glyph-name="tupian_normal" unicode="&#59015;" d="M64 33.472l322.048 265.728 122.496-122.496 187.968 250.624L960 253.248V512h-256V768H64v-734.528z m59.904-33.536H960v176.64l-248.512 164.096-196.032-261.376-133.504 133.504L123.904 0zM768 741.504V576h165.504L768 741.504zM0 832h768l256-256v-640H0V832z m256-384a128 128 0 1 0 0 256 128 128 0 0 0 0-256z m0 64a64 64 0 1 1 0 128 64 64 0 0 1 0-128z"  horiz-adv-x="1024" />

    
    <glyph glyph-name="youjian_normal" unicode="&#59016;" d="M64 70.4l288 288 45.248-45.248L148.096 64h714.944L613.888 313.152 659.2 358.4l294.4-294.4H960V659.328L505.6 204.8 64 646.464v-576zM96.96 704l408.576-408.64L914.176 704H96.896zM0 768h1024v-768H0V768z"  horiz-adv-x="1024" />

    
    <glyph glyph-name="qingkong_normal" unicode="&#59017;" d="M259.712 32h143.04l-207.104 207.104-72.384-72.448L259.712 32z m271.744 0H960v-64H256l-0.064 0.064h-22.592L32.448 166.592 620.8 754.88l316.8-316.8L531.456 32zM467.2 58.048l379.904 379.904L620.8 664.32 240.896 284.352 467.2 58.048z"  horiz-adv-x="1024" />

    
    <glyph glyph-name="xianshidanyuangezhi_normal" unicode="&#59018;" d="M320 768H64v-768h896V768H384v-256h576v-64H384v-448H320V448H64V512h256V768zM0 832h1024v-896H0V832z m576-512h320v-64H576V320zM448 320h64v-64H448V320z m0-128h448v-64H448v64z"  horiz-adv-x="1024" />

    
    <glyph glyph-name="Flashdayin_normal" unicode="&#59019;" d="M896 384h64V768H64v-384h64V576h-32V640h832v-64H896v-192z m0-64v-448H128V320H64a64 64 0 0 0-64 64V768a64 64 0 0 0 64 64h896a64 64 0 0 0 64-64v-384a64 64 0 0 0-64-64h-64zM192-64h640V576H192v-640z m128 272h384v-64H320v64z m0-128h384v-64H320v64z m480 592a32 32 0 1 0 0 64 32 32 0 0 0 0-64zM598.4 329.6h115.2v-64h-179.2v230.4h64v-166.4z m-224 0v-64h-64v230.4h192v-64h-128v-38.4h115.2v-64h-115.2z"  horiz-adv-x="1024" />

    
    <glyph glyph-name="icon_baobiaowebshuxing_shangyiye_normal" unicode="&#59020;" d="M265.344 400.448l294.208 294.208a32 32 0 1 0 45.248-45.312L333.248 377.856 604.8 106.24a32 32 0 1 0-45.248-45.248L265.344 355.2a32 32 0 0 0 0 45.248z"  horiz-adv-x="1024" />

    
    <glyph glyph-name="icon_baobiaowebshuxing_shouye_normal" unicode="&#59021;" d="M438.144 406.848l294.208 294.208a32 32 0 0 0 45.248-45.312L506.048 384.256l271.552-271.552a32 32 0 0 0-45.248-45.248L438.144 361.6a32 32 0 0 0 0 45.248zM268.8 704a32 32 0 0 0 32-32v-576a32 32 0 1 0-64 0v576a32 32 0 0 0 32 32z"  horiz-adv-x="1024" />

    
    <glyph glyph-name="shujuxiaoyan_normal" unicode="&#59022;" d="M0 768V832h128v-64H0z m192 0V832h128.064v-64H192z m192 0V832h128v-64H384z m192 0V832h128v-64H576z m192 0V832h128.064v-64H768zM0 640V704h576v-64H0z m777.792-579.968L845.632 128 568.128 405.44l-92.16 24.32 24.32-92.16 277.504-277.568z m45.248-45.248l27.008-27.008 67.84 67.84-27.008 27.072-67.84-67.84z m-384.704 306.56l-46.592 176.96a12.8 12.8 0 0 0 15.68 15.616l176.96-46.528a64 64 0 0 0 28.992-16.64l372.48-372.48a32 32 0 0 0 0-45.248l-113.216-113.152a32 32 0 0 0-45.248 0L455.04 292.352a64 64 0 0 0-16.64 28.928z"  horiz-adv-x="1024" />

    
    <glyph glyph-name="PDFdayin_normal" unicode="&#59023;" d="M896 384h64V768H64v-384h64V576h-32V640h832v-64H896v-192z m0-64v-448H128V320H64a64 64 0 0 0-64 64V768a64 64 0 0 0 64 64h896a64 64 0 0 0 64-64v-384a64 64 0 0 0-64-64h-64zM192-64h640V576H192v-640z m608 736a32 32 0 1 0 0 64 32 32 0 0 0 0-64zM275.2 384h38.4a89.6 89.6 0 1 0 0-179.2h-38.4V128h-64V384h64z m0-64v-51.2h38.4a25.6 25.6 0 1 1 0 51.2h-38.4z m204.8 0v-128H512a32 32 0 0 1 32 32v64A32 32 0 0 1 512 320h-32z m-64 64H512a96 96 0 0 0 96-96v-64A96 96 0 0 0 512 128H416V384z m268.8-179.2V128h-64V384h192v-64h-128v-51.2h115.2v-64h-115.2z"  horiz-adv-x="1024" />

    
    <glyph glyph-name="zidingyianniu_normal" unicode="&#59024;" d="M375.488 759.488a136.512 136.512 0 1 0 273.024 0v-25.6c4.864-1.92 9.6-3.84 14.336-5.952l18.112 18.112a136.512 136.512 0 1 0 193.088-193.088l-18.112-18.112c2.048-4.736 4.032-9.472 5.952-14.336h25.6a136.512 136.512 0 0 0 0-273.024h-25.6c-1.92-4.864-3.84-9.6-5.952-14.336l18.112-18.112a136.512 136.512 0 1 0-193.088-193.088l-18.112 18.112a373.248 373.248 0 0 0-14.336-5.952v-25.6a136.512 136.512 0 0 0-273.024 0v25.6c-4.864 1.92-9.6 3.84-14.336 5.952l-18.112-18.112a136.512 136.512 0 1 0-193.088 193.088l18.112 18.112a373.248 373.248 0 0 0-5.952 14.336h-25.6a136.512 136.512 0 1 0 0 273.024h25.6c1.92 4.864 3.84 9.6 5.952 14.336l-18.112 18.112A136.512 136.512 0 1 0 343.04 746.048l18.112-18.112c4.736 2.048 9.472 4.032 14.336 5.952v25.6z m67.584-71.936l-24.128-7.616a307.968 307.968 0 0 1-50.368-20.864l-22.4-11.712-53.504 53.44A68.928 68.928 0 0 1 195.2 603.328l53.44-53.44-11.712-22.4a307.968 307.968 0 0 1-20.864-50.432l-7.616-24.128h-75.52a68.928 68.928 0 1 1 0-137.856h75.52l7.616-24.128c5.44-17.408 12.416-34.24 20.864-50.368l11.712-22.4-53.44-53.504a68.928 68.928 0 0 1 97.472-97.472l53.44 53.44 22.4-11.712c16.192-8.448 33.024-15.424 50.432-20.864l24.128-7.616v-75.52a68.928 68.928 0 1 1 137.856 0v75.52l24.128 7.616c17.408 5.44 34.24 12.416 50.368 20.864l22.4 11.712 53.504-53.44a68.928 68.928 0 0 1 97.472 97.472l-53.44 53.44 11.712 22.4c8.448 16.192 15.424 33.024 20.864 50.432l7.616 24.128h75.52a68.928 68.928 0 1 1 0 137.856h-75.52l-7.616 24.128a307.968 307.968 0 0 1-20.864 50.368l-11.712 22.4 53.44 53.504a68.928 68.928 0 0 1-97.472 97.472l-53.44-53.44-22.4 11.712a307.968 307.968 0 0 1-50.432 20.864l-24.128 7.616v75.52a68.928 68.928 0 1 1-137.856 0v-75.52zM512 192a192 192 0 1 0 0 384 192 192 0 0 0 0-384z m0 64a128 128 0 1 1 0 256 128 128 0 0 1 0-256z"  horiz-adv-x="1024" />

    
    <glyph glyph-name="Excel-daoru_normal" unicode="&#59025;" d="M64 32h64V-64h768.064V576h-256V832H128v-544H64V896h640l256-256.064V-128H64v160zM869.504 640L704 805.504V640h165.504z m-609.856-447.104l-34.048 34.048a32 32 0 0 0 45.248 45.312l90.496-90.56a32 32 0 0 0 0-45.248l-90.496-90.496a32 32 0 1 0-45.248 45.248l37.76 37.76H32a32 32 0 1 0 0 64h227.648zM768 256h-64v-64h64v64z m64 64v-320H384V320h448z m-64-256v64h-64v-64h64z m-128 192H576v-64h64v64z m0-192v64H576v-64h64z m-128 192H448v-64h64v64z m0-192v64H448v-64h64zM352 528L256 384H192l128 192-128 192h64l96-144L448 768h64L384 576l128-192H448L352 528z"  horiz-adv-x="1024" />

    
    <glyph glyph-name="zancun_normal" unicode="&#59026;" d="M800 160h64v-64h-128v128h64v-64zM896 311.872V768h-128v-320H256V768H128v-768h456.128A224 224 0 0 0 896 311.872z m64-68.48A224 224 0 0 0 652.544-64L64-63.936V832h896v-588.544zM320 768v-256h384V768H320z m256-64h64v-128H576V704z m192-736a160 160 0 1 1 0 320 160 160 0 0 1 0-320z"  horiz-adv-x="1024" />

    
    <glyph glyph-name="icon_baobiaowebshuxing_xiayiye_normal" unicode="&#59027;" d="M758.4 400.448a32 32 0 0 0 0-45.248l-294.144-294.144a32 32 0 1 0-45.312 45.248l271.552 271.552-271.552 271.488a32 32 0 1 0 45.312 45.312l294.144-294.208z"  horiz-adv-x="1024" />

    
    <glyph glyph-name="icon_baobiaowebshuxing_moye_normal" unicode="&#59028;" d="M585.6 406.848a32 32 0 0 0 0-45.248l-294.144-294.144a32 32 0 1 0-45.312 45.248L517.76 384.256 246.144 655.744a32 32 0 1 0 45.312 45.312L585.6 406.848zM754.944 704a32 32 0 0 0 32-32v-576a32 32 0 1 0-64 0v576a32 32 0 0 0 32 32z"  horiz-adv-x="1024" />

    
    <glyph glyph-name="Appledayin_normal" unicode="&#59029;" d="M896 384h64V768H64v-384h64V576h-32V640h832v-64H896v-192z m0-64v-448H128V320H64a64 64 0 0 0-64 64V768a64 64 0 0 0 64 64h896a64 64 0 0 0 64-64v-384a64 64 0 0 0-64-64h-64zM192-64h640V576H192v-640z m608 736a32 32 0 1 0 0 64 32 32 0 0 0 0-64zM505.216 311.552c32.064 5.312 37.824 12.928 32.64 32.192-16.64 62.336 26.688 104.448 110.912 124.096a32 32 0 1 0 14.592-62.336c-53.76-12.544-68.544-26.88-63.616-45.248 2.048-7.744 3.328-15.232 3.776-22.336a232.32 232.32 0 0 1 15.36 9.344 32 32 0 0 0 35.264-53.376 272.192 272.192 0 0 0-119.68-44.352 370.752 370.752 0 0 0-27.52-2.112c-73.152-3.072-147.776 15.232-171.328 57.6-28.928 52.096 0.768 110.912 53.248 131.84a32 32 0 0 0 23.68-59.456c-19.648-7.872-29.12-26.624-20.992-41.28 8.064-14.464 62.08-26.304 113.664-24.576z m-263.68-258.56a32 32 0 0 0 51.904 37.376c31.808-44.288 101.376-68.16 211.2-68.16 110.528 0 184.128 24.256 222.72 70.08a32 32 0 0 0 48.96-41.216c-52.864-62.848-144.064-92.864-271.68-92.864-128.32 0-216.896 30.4-263.168 94.784z m143.552 28.288a32 32 0 1 0 22.848 59.776c23.04-8.768 56.32-13.44 99.2-13.44 41.152 0 68.032 4.352 78.592 10.88a32 32 0 0 0 33.472-54.592c-23.36-14.336-59.968-20.352-112-20.352-50.112 0-90.752 5.76-122.112 17.728z m-27.264 105.984a32 32 0 0 0 33.92 54.272c25.984-16.192 63.616-24.768 113.216-24.768 48.384 0 81.024 8.128 97.984 22.272a32 32 0 1 0 40.896-49.28c-30.656-25.408-76.992-36.992-138.88-36.992-60.672 0-109.824 11.2-147.136 34.56z m156.288 172.8a32 32 0 0 0-61.888-16.192c-15.616 59.712-3.84 107.52 37.952 136.128 17.92 12.16 23.232 27.264 17.28 52.032a32 32 0 1 0 62.272 14.912c11.968-49.92-2.944-92.16-43.456-119.808-16.64-11.392-21.504-31.232-12.16-67.008z m200.512-98.624a32 32 0 0 0 8.32 63.424c48-6.208 77.056-35.84 77.056-81.792 0-58.176-40.768-100.672-113.088-129.088a32 32 0 0 0-23.36 59.584c50.432 19.84 72.448 42.752 72.448 69.504 0 12.16-3.776 16-21.376 18.368z"  horiz-adv-x="1024" />

    
    <glyph glyph-name="Worddaochu_normal" unicode="&#59030;" d="M896.064 96H960V-128H64V896h640l256-256.064V416h-63.936V576h-256V832H128v-896h768.064v160zM869.504 640L704 805.504V640h165.504zM396.8 320v-128h32a32 32 0 0 1 32 32v64a32 32 0 0 1-32 32h-32z m-64 64h96a96 96 0 0 0 96-96v-64A96 96 0 0 0 428.8 128H332.8V384z m320-64a32 32 0 0 1-32-32v-64a32 32 0 1 1 64 0v64a32 32 0 0 1-32 32z m0 64a96 96 0 0 0 96-96v-64a96 96 0 0 0-192 0v64A96 96 0 0 0 652.8 384zM960 313.6c-22.4 4.288-39.552 6.4-51.328 6.4-17.664 0-63.872-12.8-63.872-64s46.208-64 63.872-64c11.776 0 28.864 2.112 51.328 6.4v-62.4c1.088-4.288-16-6.4-51.328-6.4-53.056 0-129.792 34.88-128 126.4 1.664 91.52 74.944 128 128 128 35.328 0 52.48-2.112 51.328-6.4v-64z"  horiz-adv-x="1024" />

    
    <glyph glyph-name="Excel-daochu_normal" unicode="&#59031;" d="M960 480l-63.936 63.936v32h-256V832H128v-896h768.064v288.064L960 288V-128H64V896h640l256-256.064V480zM869.504 640L704 805.504V640h165.504z m30.144-222.272l-34.048 34.048a32 32 0 1 0 45.248 45.248l90.496-90.496a32 32 0 0 0 0-45.248l-90.496-90.496a32 32 0 1 0-45.248 45.248l37.76 37.76H672a32 32 0 1 0 0 64h227.648zM352 528L256 384H192l128 192-128 192h64l96-144L448 768h64L384 576l128-192H448L352 528zM704 256h-64v-64h64v64z m54.4 64H768v-320H192V320h566.4zM704 64v64h-64v-64h64z m-128 192H512v-64h64v64z m0-192v64H512v-64h64z m-128 192H384v-64h64v64z m0-192v64H384v-64h64z m-128 192H256v-64h64v64z m0-192v64H256v-64h64z"  horiz-adv-x="1024" />

    
    <glyph glyph-name="dangqianye-zongyeshu_normal" unicode="&#59032;" d="M64-64V832h896v-896H64z m64 64h768V576H128v-576zM128 640h768V768H128v-128z m64-448V512h256v-320H192z m64 64h128V448H256v-192z m256 192V512h320v-64H512z m0-128V384h320v-64H512z m0-128v64h320v-64H512z m-320-128v64h640v-64H192z"  horiz-adv-x="1024" />

    
    <glyph glyph-name="icon_baobiaowebshuxing_suofang_normal" unicode="&#59033;" d="M788.928 704H640V768h256.064v-256H832V656.448l-256-256v-272.512h384.064V832H192v-384h340.928l256 256zM128 448V896.064h896V64H576v-128H0V448h128z m-64-448h448V384H64v-384z"  horiz-adv-x="1024" />

    
    <glyph glyph-name="PDFdaochu_normal" unicode="&#59034;" d="M896.064 96H960V-128H64V896h640l256-256.064V416h-63.936V576h-256V832H128v-896h768.064v160zM869.504 640L704 805.504V640h165.504zM384 352h38.4a89.6 89.6 0 1 0 0-179.2H384v-76.8H320v256h64z m0-64v-51.2h38.4a25.6 25.6 0 1 1 0 51.2H384z m224 0v-128h32a32 32 0 0 1 32 32v64a32 32 0 0 1-32 32h-32z m-64 64H640a96 96 0 0 0 96-96v-64a96 96 0 0 0-96-96H544v256z m288-179.2v-76.8h-64v256h192v-64h-128v-51.2h115.2v-64H832z"  horiz-adv-x="1024" />

    


  </font>
</defs>
</svg>
